<?xml version="1.0" encoding="UTF-8" standalone="no"?>
<svg
   xmlns:dc="http://purl.org/dc/elements/1.1/"
   xmlns:cc="http://creativecommons.org/ns#"
   xmlns:rdf="http://www.w3.org/1999/02/22-rdf-syntax-ns#"
   xmlns:svg="http://www.w3.org/2000/svg"
   xmlns="http://www.w3.org/2000/svg"
   xmlns:sodipodi="http://sodipodi.sourceforge.net/DTD/sodipodi-0.dtd"
   xmlns:inkscape="http://www.inkscape.org/namespaces/inkscape"
   width="0.40000001in"
   height="0.60000002in"
   viewBox="0 0 36.000002 54.000003"
   id="svg3341"
   version="1.1"
   inkscape:version="1.0.1 (3bc2e813f5, 2020-09-07)"
   sodipodi:docname="hangedlogovec.svg">
  <defs
     id="defs3343" />
  <sodipodi:namedview
     id="base"
     pagecolor="#ffffff"
     bordercolor="#666666"
     borderopacity="1.0"
     inkscape:pageopacity="0.0"
     inkscape:pageshadow="2"
     inkscape:zoom="8.0272135"
     inkscape:cx="3.4244873"
     inkscape:cy="51.380986"
     inkscape:document-units="px"
     inkscape:current-layer="layer1"
     showgrid="false"
     inkscape:window-width="1920"
     inkscape:window-height="1057"
     inkscape:window-x="-8"
     inkscape:window-y="-8"
     inkscape:window-maximized="1"
     inkscape:document-rotation="0"
     inkscape:snap-bbox="true"
     inkscape:snap-bbox-midpoints="true"
     inkscape:bbox-nodes="true"
     inkscape:snap-page="true"
     inkscape:snap-object-midpoints="true"
     units="in" />
  <metadata
     id="metadata3346">
    <rdf:RDF>
      <cc:Work
         rdf:about="">
        <dc:format>image/svg+xml</dc:format>
        <dc:type
           rdf:resource="http://purl.org/dc/dcmitype/StillImage" />
        <dc:title></dc:title>
      </cc:Work>
    </rdf:RDF>
  </metadata>
  <g
     inkscape:label="Layer 1"
     inkscape:groupmode="layer"
     id="layer1"
     transform="translate(0,-768.89764)">
    <path
       style="fill:#f9f9f9;stroke-width:0.30821"
       d="m 17.961244,822.70971 c -0.02991,-0.003 -0.124677,-0.0116 -0.210627,-0.0202 -1.169282,-0.10997 -2.307244,-0.65121 -3.158027,-1.50198 -0.854096,-0.85409 -1.36371,-1.92522 -1.505733,-3.16482 -0.02231,-0.19478 -0.02231,-0.85156 0,-1.04632 0.142017,-1.23961 0.651637,-2.31076 1.505733,-3.16485 0.854101,-0.85409 1.925232,-1.3637 3.164821,-1.50571 0.194764,-0.0222 0.851577,-0.0222 1.046344,0 1.23959,0.14193 2.310718,0.65162 3.164813,1.50571 0.854109,0.85409 1.363714,1.92524 1.505735,3.16485 0.02231,0.19476 0.02231,0.85154 0,1.04632 -0.142013,1.2396 -0.651626,2.31073 -1.505735,3.16482 -0.838526,0.8385 -1.899288,1.35128 -3.09687,1.497 -0.16628,0.0202 -0.786474,0.0373 -0.910454,0.0252 z m -0.217422,-11.74095 c -0.754874,-0.0382 -1.25673,-0.0893 -1.868473,-0.19005 -2.605849,-0.42929 -5.05205,-1.55077 -7.0791165,-3.24547 -0.639641,-0.53474 -1.3219004,-1.21702 -1.8566597,-1.85666 -1.8180335,-2.1746 -2.9762787,-4.83494 -3.3276137,-7.64305 -0.084404,-0.67461 -0.1082525,-1.08029 -0.1082525,-1.8413 0,-0.76099 0.023852,-1.16668 0.1082525,-1.84129 0.3390229,-2.70971 1.4394918,-5.30586 3.1440475,-7.41724 0.2621607,-0.32472 0.2567036,-0.31932 0.1930729,-0.19072 -0.1839919,0.37184 -0.449081,1.01258 -0.5923864,1.43181 -0.3618905,1.05871 -0.571915,2.10198 -0.6620166,3.28851 -0.022369,0.29454 -0.022369,1.33614 0,1.63067 0.1342906,1.76843 0.5602856,3.3339 1.3191809,4.84782 0.2032578,0.4055 0.6287687,1.00933 1.0940168,1.55254 0.1663717,0.19426 0.6238698,0.6486 0.7869322,0.78149 0.3019098,0.24606 0.6112517,0.43844 0.8822395,0.54874 0.1978172,0.0805 0.3814341,0.12621 0.5812141,0.14475 0.04858,0.005 0.148526,0.0176 0.22212,0.0292 0.286336,0.0452 0.640609,-0.0371 1.09048,-0.25372 0.624466,-0.30063 1.321842,-0.786 2.166158,-1.50766 0.427406,-0.36529 0.945183,-0.85044 0.943127,-0.88369 -6.48e-4,-0.0116 -1.273342,-2.85838 -2.828061,-6.32626 -1.554721,-3.46788 -2.8482812,-6.36387 -2.8745827,-6.43556 -0.2053417,-0.5596 -0.3388959,-1.18608 -0.3611879,-1.69426 -0.037469,-0.85419 0.1450889,-1.57212 0.5605742,-2.20452 0.1482776,-0.22569 0.2620069,-0.36535 0.4683382,-0.57514 0.5976472,-0.60763 1.4100192,-1.07784 2.4407422,-1.41273 0.875119,-0.28435 1.737767,-0.44277 2.880841,-0.52903 0.301314,-0.0227 1.514059,-0.0227 1.793735,1.5e-4 0.60644,0.0494 0.611203,0.0505 0.339723,0.0831 -0.154471,0.0185 -0.437367,0.0901 -0.665858,0.16846 -1.133163,0.38862 -2.249985,1.13831 -2.990187,2.00725 -0.947926,1.11278 -1.270051,2.41352 -0.935513,3.77756 0.100713,0.41063 0.234973,0.76738 0.453446,1.2048 0.431231,0.86342 1.02687,1.6605 1.916328,2.56439 0.770024,0.78252 1.667705,1.54486 2.72457,2.31376 0.13839,0.1007 0.152716,0.10798 0.193148,0.0974 0.02402,-0.006 0.08028,-0.0454 0.125025,-0.0868 0.403681,-0.37374 0.860366,-1.81 1.170606,-3.6815 0.347074,-2.0937 0.466135,-4.49003 0.331839,-6.67893 -0.07958,-1.29695 -0.241154,-2.51728 -0.490299,-3.70297 -0.269417,-1.28215 -0.643793,-2.48198 -1.113022,-3.56709 -0.726866,-1.6809 -1.72387,-3.13727 -2.893044,-4.22604 -0.124346,-0.11577 -0.219641,-0.21267 -0.211774,-0.21528 0.02249,-0.008 0.207621,0.0366 0.40076,0.0954 0.691048,0.21043 1.416628,0.61331 2.129347,1.18232 1.986672,1.58611 3.810306,4.30645 5.154241,7.68873 1.134714,2.85572 1.882765,6.1185 2.166824,9.45107 0.102432,1.20179 0.130636,1.88913 0.143307,3.49234 0.02586,3.27036 0.122901,5.72975 0.292843,7.41954 0.108267,1.07647 0.215706,1.57816 0.433603,2.02473 0.164076,0.33628 0.355606,0.52805 0.612099,0.61287 0.109142,0.0361 0.313896,0.0333 0.455224,-0.006 0.648299,-0.1809 1.488539,-1.01151 2.428278,-2.40051 0.244375,-0.36121 0.391829,-0.60543 0.518878,-0.85941 0.68218,-1.3638 1.116469,-2.85055 1.271217,-4.35192 0.0518,-0.50225 0.06134,-0.70627 0.06134,-1.30453 0,-0.92083 -0.06521,-1.59687 -0.237988,-2.4664 -0.207545,-1.04461 -0.582177,-2.15724 -1.033434,-3.06928 -0.06363,-0.12852 -0.06907,-0.13399 0.193068,0.19074 1.704552,2.11136 2.805024,4.70753 3.144048,7.41724 0.08439,0.67461 0.108243,1.08029 0.108243,1.84128 0,0.761 -0.02389,1.16668 -0.108243,1.84132 -0.35134,2.80811 -1.509584,5.46842 -3.327623,7.64305 -0.53475,0.63961 -1.217009,1.32188 -1.856651,1.85666 -2.02705,1.69467 -4.473802,2.81638 -7.079117,3.24543 -0.487028,0.0802 -0.951245,0.13332 -1.501572,0.17176 -0.202205,0.0149 -1.257843,0.0275 -1.440421,0.0182 z"
       id="path3360"
       inkscape:connector-curvature="0" />
  </g>
</svg>
