<svg id="rects2017_8k_Image" data-name="rects2017_8k Image" xmlns="http://www.w3.org/2000/svg" viewBox="0 0 1686.3 808.52"><defs><style>.cls-1{fill:#1c1c1b;}.cls-1,.cls-2,.cls-3,.cls-4,.cls-5,.cls-6{fill-rule:evenodd;}.cls-2,.cls-9{fill:#feb283;}.cls-10,.cls-3{fill:#95de80;}.cls-4,.cls-8{fill:#df6d9e;}.cls-11,.cls-5{fill:#34bad5;}.cls-12,.cls-6{fill:#fede62;}.cls-7{fill:none;}</style></defs><title>rectangles_website_logo_ottawa</title><path class="cls-1" d="M1085.85,886.88v.38l.18-.21Z" transform="translate(-79.13 -78.74)"/><path class="cls-2" d="M1762.44,757.4c.37,16.26.76,32.9.79,49-5.68.06-11.35.12-16.68.53.21,1.19,2,1.28,2.92,1.59,9.22,3.09,16.84,11,15.88,24.35-.89,12.39-9.42,21.65-23,22.5-21.75,1.35-51.47.08-72.78,1.06-.26-15.71-.68-32.41-.8-48.44,6.75-.17,12.76-.1,19.59-.53-.83-1.48-2.76-1.24-4-1.59-10.26-2.91-20.07-10.63-18.53-25.67a24.45,24.45,0,0,1,21.44-21.44c9.55-1,21.23-.47,32.82-.53C1735.4,758.11,1748.67,757.4,1762.44,757.4Z" transform="translate(-79.13 -78.74)"/><path class="cls-2" d="M1660.54,758.72c.56,9.63.2,22.35.79,32.82-6.3.58-13.71.05-20.11.53-.17.44.11,2.7,0,4,7.57.2,12.77-.39,20.11-.27-.09,7.94.47,15.24.27,23.3-6.56.55-14.18,0-20.12.53.12,1.2-.27,2.91.27,3.7,7,.8,12.71-.34,20.11,0,0,11.11.28,22,.53,32.82-27.49.43-53.71,1.07-80.73,1.32-.48-33.73-1.23-63.67-1.58-97.13C1606.92,759.53,1633.79,759.45,1660.54,758.72Z" transform="translate(-79.13 -78.74)"/><path class="cls-3" d="M1285,764c1.33-.68,2.14,1,2.91,1.58,15.19,11.28,31.36,23.38,46.58,34.94,0-12.5-.44-23.57-.53-35.73,16.89-.28,31.81-.7,48.44-.79.46,31.83,1.23,63.9,1.59,97.13-73.35,1.57-145,2.45-219.68,3.71,19.5-35.29,39.67-69.91,59.29-105.08q31.62,50.82,62.72,102.16c.23-.05.25.11.27.27C1286.34,831.63,1285.48,795.8,1285,764Z" transform="translate(-79.13 -78.74)"/><path class="cls-2" d="M1465.21,766.4c-6.82-3.47-14.21-6.25-23.9-6.49l.06,49.62Q1453.34,788,1465.21,766.4Z" transform="translate(-79.13 -78.74)"/><path class="cls-3" d="M1440.33,811.39l1-1.86-.06-49.62q-2.74-.07-5.74.13c-14.78,1.09-25.09,8.38-33.09,16.68a49.14,49.14,0,0,0-13.76,34.94A51,51,0,0,0,1440.6,863c.28,0,.55,0,.83,0l-.06-51.59Z" transform="translate(-79.13 -78.74)"/><path class="cls-2" d="M1491.68,810.6c-17.09.07-34,.61-50.31.78l.06,51.59a50.73,50.73,0,0,0,35.42-15.32C1485.71,838.66,1491.45,827.92,1491.68,810.6Z" transform="translate(-79.13 -78.74)"/><path class="cls-2" d="M1545.41,761.1c.35,16.06.7,32.12.79,48.44,8.84.26,17.84-.33,27-.27.37,16.58.74,32.28.79,48.7-24.87.4-50.31.83-75.43,1.33-.83-31.2-1.11-65.24-1.85-97.4C1513.22,761.74,1529.62,761.27,1545.41,761.1Z" transform="translate(-79.13 -78.74)"/><path class="cls-4" d="M1052.06,818.27c10.34-10.38,20.39-21.45,31-32,1.11-1.11,4.53-4.1,4.5-4.77,0-1-5.72-4.89-7.14-5.82a53.25,53.25,0,0,0-8.74-4.5A51.63,51.63,0,0,0,1016.06,782,50.87,50.87,0,0,0,1001,814.3c-1.77,26.45,13.68,44.08,32,51.61,20.75,8.52,44.81,1,55.67-12v-.37C1076.27,842,1064.13,830.17,1052.06,818.27Z" transform="translate(-79.13 -78.74)"/><path class="cls-3" d="M1178.84,816.42c-6.56-.12-12.41.47-19.06.26.39,15.43.73,31.81.79,48.7-15.67.21-32.22.65-48.7.8,0-16.9-.42-31.66-.79-48.44-5.81-.07-13.76,0-20.11.27-.16-16.5-.61-31.84-.8-49,15.7.09,31.33-.79,47.11-.79,13.16,0,26.35.2,38.65-.53,2.45-.15,2.07.29,2.11,4.5C1178.19,785.93,1178.44,803.19,1178.84,816.42Z" transform="translate(-79.13 -78.74)"/><path class="cls-4" d="M994.36,770.63c.23,10.81.51,21.55.53,32.56-6.42.46-13.79,0-20.12.53v4c5.91.07,13.93,0,20.38-.27-.2,8.05.34,15.37.27,23.29-6.53.18-13,.37-19.85.27-.54.87-.14,2.68-.27,4,6.38.72,13.58,0,20.12,0,.57,10.63.2,22.21.79,32.82-27,.3-53.74,1-80.72,1.32-.36-33-1.12-64.11-1.59-97.13C940.46,771.48,967,770.87,994.36,770.63Z" transform="translate(-79.13 -78.74)"/><path class="cls-4" d="M894.31,843.15c4.83,8.85,10,17.38,14.56,26.47-28.68.17-56.7,1-85.22,1.32-.56-32.27-1.35-65.7-1.59-97.4,25.6,1.26,52.6-5.39,69.34,5.83a40.24,40.24,0,0,1,14.3,17.73C912.87,813.7,906.73,833.67,894.31,843.15Z" transform="translate(-79.13 -78.74)"/><path class="cls-5" d="M660.61,776.72c7.34,13.54,16,28.31,24.35,42.35,1.26,2.12,3.1,4.54,3.44,6.35.69,3.73-.18,8.12,0,12.17.56,12.26.35,23.65.79,35.73,16.25-.16,32.24-.58,48.44-.79.06-12.46-.53-24.41-.53-36.26,0-4.07-1-8.6-.26-12.18a15.73,15.73,0,0,1,2.11-4.28l-.06-44.52C712.76,775.73,686.6,776.14,660.61,776.72Z" transform="translate(-79.13 -78.74)"/><path class="cls-4" d="M763,774.87l-24.15.42.06,44.52c.38-.61.75-1.22,1.06-1.8C747.88,803.5,755.91,788.73,763,774.87Z" transform="translate(-79.13 -78.74)"/><path class="cls-5" d="M658.23,776.72c.33,16.17.73,32.27.79,48.7-6.54-.19-12.42.28-18.79.26.24,16.26.66,32.34.79,48.7-16.31.1-32.31.5-48.43.8-.38-16-.73-32.09-.79-48.44-6.19-.44-13.48.28-20.38,0-.08-16.33-.44-32.38-.8-48.43C599.59,777.54,628.92,777.14,658.23,776.72Z" transform="translate(-79.13 -78.74)"/><path class="cls-5" d="M552.36,849.24c4.81,8.86,10,17.39,14.56,26.47-28.68.17-56.71,1-85.23,1.32-.54-32.27-1.34-65.7-1.59-97.4,15.22-1,30.56.85,44.2-.79,9.48-1.14,18.9,2.74,25.15,6.88a39.26,39.26,0,0,1,14.29,17.47C570.92,819.82,564.75,839.78,552.36,849.24Z" transform="translate(-79.13 -78.74)"/><path class="cls-5" d="M471.63,779.89c.39,32.53,1.18,64.65,1.59,97.14-16.56.38-34.46.82-50.55.79-.34-32.56-1.13-64.68-1.59-97.13C438.14,780.63,454.79,780.16,471.63,779.89Z" transform="translate(-79.13 -78.74)"/><path class="cls-6" d="M357,782c-12.79.66-25.47-.12-39.7.53.73,31.38,1,65.8,1.85,97.4,18.37-.78,35.37.39,51.62-.79a46.86,46.86,0,0,0,16.49-4.34V786.4C379.24,782.79,369.71,781.36,357,782Z" transform="translate(-79.13 -78.74)"/><path class="cls-5" d="M415,824.09a47.8,47.8,0,0,0-18.27-32,46.56,46.56,0,0,0-9.44-5.67v88.41a49.24,49.24,0,0,0,16.59-12.6A48.13,48.13,0,0,0,415,824.09Z" transform="translate(-79.13 -78.74)"/><path class="cls-7" d="M287.16,306.13c1.45,112.39,3.77,224,5.56,337.46l1.1,0c-1.79-113.45-4.1-225.05-5.56-337.44l99-1.78v0Z" transform="translate(-79.13 -78.74)"/><path class="cls-8" d="M738.27,298.16v0l350.4-6v0Z" transform="translate(-79.13 -78.74)"/><path class="cls-9" d="M1634.6,282.58q-96.84,1.74-193.87,3.43v0q97-1.69,193.87-3.43Z" transform="translate(-79.13 -78.74)"/><path class="cls-10" d="M1088.67,292.12v0q176.11-3,352.06-6.11v0Q1264.84,289.1,1088.67,292.12Z" transform="translate(-79.13 -78.74)"/><path class="cls-7" d="M387.29,304.33v0q175.15-3.14,351-6.17v0Q562.52,301.22,387.29,304.33Z" transform="translate(-79.13 -78.74)"/><path class="cls-7" d="M293.25,679.06c.63,16,.47,32.87,1.05,49,.06.21.23.31.53.26,30.81-.09,61.64-.87,92.46-1.6V677.32Q340.25,678.18,293.25,679.06Z" transform="translate(-79.13 -78.74)"/><path class="cls-7" d="M387.29,677.32v49.36c28.66-.67,57.31-1.3,85.93-1.31,59.7,0,119.25-3.17,178.92-3.17,28.81,0,57.69-.94,86.68-1.54l-.06-49.6Q562.89,674.12,387.29,677.32Z" transform="translate(-79.13 -78.74)"/><path class="cls-7" d="M738.76,671.06l.06,49.6,2.52,0c29.85-.59,59.85-.87,89.72-1.59,29.71-.71,59.49-.34,89.19-1.59,29.92-1.26,59.92-.17,89.73-1.59,14.89-.7,29.91.18,45-.52,11.15-.52,22.48-.86,33.7-1V665Q913.72,668,738.76,671.06Z" transform="translate(-79.13 -78.74)"/><path class="cls-7" d="M208.82,680.38c0,15.67.41,33.29.79,49.49,15.6-.27,32.63-.72,49.23-.79,0-16.72-.42-33.11-.79-49.5C241.54,679.75,225.31,680.2,208.82,680.38Z" transform="translate(-79.13 -78.74)"/><path class="cls-7" d="M736.31,213.5c-59.5,0-119,2.55-178.39,3.18-56.91.59-113.79,1.7-170.63,2.87v49.61q175.46-3,350.93-6.07l-.06-49.6Z" transform="translate(-79.13 -78.74)"/><path class="cls-7" d="M200.88,223c-.21.06-.31.22-.27.53,2.8,141.26,5,280.68,7.41,421.35.06.21.22.31.53.27,16.21-.29,32.32-.68,48.7-.8-1.38-122-4.71-247.84-6.09-372.92h.53l135.6-2.3V219.55C325.11,220.83,263,222.18,200.88,223Z" transform="translate(-79.13 -78.74)"/><path class="cls-8" d="M738,93.48l0,35.51,350.62-6.09V87.24Q913.51,90.14,738,93.48Z" transform="translate(-79.13 -78.74)"/><path class="cls-10" d="M1391.1,82.22c-31.21,0-62.4,1.59-93.69,1.59-31.12,0-62.38,1.11-93.43,1.59q-57.62.88-115.31,1.84V122.9q175.93-3.06,351.86-6.15l0-35.13C1424,82,1407.57,82.22,1391.1,82.22Z" transform="translate(-79.13 -78.74)"/><path class="cls-9" d="M1581.93,82.75c-.07-1.66.19-3.72-1.32-4-1-.17-1.27.27-1.86.27-46.07-.29-92.14,1.57-138.27,2.57l0,35.13,141.93-2.5C1581.81,106.79,1582.35,92,1581.93,82.75Z" transform="translate(-79.13 -78.74)"/><path class="cls-11" d="M387.29,99.94v35.17Q562.61,132,738.05,129l0-35.51Q562.5,96.75,387.29,99.94Z" transform="translate(-79.13 -78.74)"/><path class="cls-12" d="M294.83,728.28c-.3.05-.47,0-.53-.26-.58-16.09-.42-32.92-1.05-49q47-.88,94-1.74V642.05q-46.73.78-93.47,1.54v0l-1.1,0c-1.79-113.46-4.11-225.07-5.56-337.46l100.13-1.8V269.16l-135.6,2.3h-.53c1.38,125.08,4.71,251,6.09,372.92-16.38.12-32.49.51-48.7.8-.31,0-.47-.06-.53-.27-2.41-140.67-4.61-280.09-7.41-421.35,0-.31.06-.47.27-.53,62.09-.85,124.23-2.2,186.41-3.48V184.37c-11.77.07-23.54.25-35.29.81-15.56.74-31.18.17-46.84.79-47.36,1.9-94,.13-140.28,2.91,2.28,153,5.6,304.79,7.68,456.83-16.21.55-32,.4-48.44,1.06-.29-.06-.41-.3-.53-.53-3-167.82-5.65-337.52-9-505.79,0-.27.22-.31.27-.53q136.15-2.43,272.43-4.81V99.94q-154.16,2.73-307.63,5h-.53c2.17,193,6.59,383.9,9.53,577.52,28-.37,56.82-1.19,84.69-1.33.72,28,1,56.4,1.59,84.43,28.47-.21,57.09-1,84.69-1.32.31,28.28,1.13,56,1.33,84.43.34,0,.36.34.79.26,11.41-.5,23.59-.23,34.94-.79.2-.06.31-.22.26-.53.09-28.49-2.36-55.86-1.59-84.16l91.93-1.6V726.68C356.47,727.41,325.64,728.19,294.83,728.28Zm-85.22,1.59c-.38-16.2-.76-33.82-.79-49.49,16.49-.18,32.72-.63,49.23-.8.37,16.39.74,32.78.79,49.5C242.24,729.15,225.21,729.6,209.61,729.87Z" transform="translate(-79.13 -78.74)"/><path class="cls-11" d="M387.29,642.05v35.27q175.53-3.23,351.47-6.26l0-35Q563,639.13,387.29,642.05Z" transform="translate(-79.13 -78.74)"/><path class="cls-11" d="M652.14,722.2c-59.67,0-119.22,3.17-178.92,3.17-28.62,0-57.27.64-85.93,1.31v35.21l351.58-6.09,0-35.14C709.83,721.26,681,722.19,652.14,722.2Z" transform="translate(-79.13 -78.74)"/><path class="cls-11" d="M634.14,180.15c-15.66,0-31.46.49-47.11.79s-31.5.14-47.11.8c-31.19,1.31-62.42.53-93.69,1.85-19.61.83-39.28.66-58.94.78v35.18c56.84-1.17,113.72-2.28,170.63-2.87,59.42-.63,118.89-3.18,178.39-3.18h1.85l0-34.91C703.44,179.38,668.81,180.15,634.14,180.15Z" transform="translate(-79.13 -78.74)"/><path class="cls-11" d="M387.29,269.16v35.17q175.15-3.13,351-6.17l0-35.07Q562.75,266.16,387.29,269.16Z" transform="translate(-79.13 -78.74)"/><path class="cls-8" d="M1055,715.32c-15.08.7-30.1-.18-45,.52-29.81,1.42-59.81.33-89.73,1.59-29.7,1.25-59.48.88-89.19,1.59-29.87.72-59.87,1-89.72,1.59l-2.52,0,0,35.14,349.8-6.09V714.33C1077.45,714.46,1066.12,714.8,1055,715.32Z" transform="translate(-79.13 -78.74)"/><path class="cls-10" d="M1367.55,709.76c-29.7,1.4-59.66.07-89.46,1.32-29.57,1.24-59.21,1.28-88.67,1.59-29.86.31-59.78,1.59-89.72,1.59q-5.49,0-11,.07v35.38l352.62-6.11,0-35C1416.7,709.06,1392.07,708.6,1367.55,709.76Z" transform="translate(-79.13 -78.74)"/><path class="cls-10" d="M1088.67,256.93v35.19q176.11-3,352.06-6.11l0-35.27Q1264.8,253.82,1088.67,256.93Z" transform="translate(-79.13 -78.74)"/><path class="cls-10" d="M1088.67,629.84V665q176.4-3,352.51-6.12l0-35.23Q1264.77,626.68,1088.67,629.84Z" transform="translate(-79.13 -78.74)"/><path class="cls-10" d="M1385.81,166.92c-47.1,1.31-94,.89-140.81,2.64-15.64.59-31.44.56-47.11.8-36.48.55-72.82,1.38-109.22,2v35.12l5.47,0c59.46,0,118.79-3.17,178.13-3.17,29.78,0,59.59-1.59,89.45-1.59,26.29,0,52.64-.89,78.91-1.41l0-35.57Q1413.17,166.18,1385.81,166.92Z" transform="translate(-79.13 -78.74)"/><path class="cls-9" d="M1754.23,245.26c-28.3.29-57.26,1.31-85,1.32-.32-28.26-.82-56.35-1.32-84.43-75.75,1.86-151.69,2.13-227.36,3.52l0,35.57q5.14-.11,10.29-.18c29.39-.45,59-.25,88.4-1.59,29.86-1.36,59.78.06,89.46-1.32.93-.05.91-.49,2.91-.27,2.3.26,1.48,2.12,1.59,5,.48,13.91.66,32,.79,44.47l-193.38,3.36,0,35.27q97-1.69,193.87-3.43v0l1.1,0c1.84,112.3,4.41,227,5.83,337.72q-100.27,1.63-200.39,3.37l0,35.23q117.6-2.07,235-4.19c-1.41-123.32-4.06-248.71-6.08-372.13,15.31-1.51,32.83-.89,49.22-1.32,2.26,141.82,5.58,281.43,7.15,422.15h-.53c-59.63,1.18-119.33,1.74-178.92,3.17-29.91.72-59.79.39-89.72,1.59-5.34.21-10.68.34-16,.44l0,35q160.56-2.77,321.15-5.52C1760.11,574.85,1756.79,410,1754.23,245.26Z" transform="translate(-79.13 -78.74)"/><path class="cls-8" d="M738.71,636l0,35q174.91-3.06,349.91-6V629.84Q913.61,632.94,738.71,636Z" transform="translate(-79.13 -78.74)"/><path class="cls-8" d="M1057.35,172.74c-15.68.16-31.45.25-47.11.79-47.11,1.63-94,1-140.8,2.65-15.63.54-31.46.63-47.12.79-28.14.3-56.19,1-84.21,1.61l0,34.91c58.91-.05,117.85-2.85,176.8-3.17,57.86-.31,115.82-2.73,173.71-2.88V172.32Q1073,172.56,1057.35,172.74Z" transform="translate(-79.13 -78.74)"/><path class="cls-8" d="M738.22,263.09l0,35.07,350.4-6V256.93Q913.5,260,738.22,263.09Z" transform="translate(-79.13 -78.74)"/></svg>